<?xml version="1.0" encoding="utf-8"?>
<!-- Generator: Adobe Illustrator 22.1.0, SVG Export Plug-In . SVG Version: 6.00 Build 0)  -->
<svg version="1.1" id="图层_1" xmlns="http://www.w3.org/2000/svg" xmlns:xlink="http://www.w3.org/1999/xlink" x="0px" y="0px"
	 viewBox="0 0 1000 1000" style="enable-background:new 0 0 1000 1000;" xml:space="preserve">
<style type="text/css">
	.st0{fill:#22849F;}
</style>
<path class="st0" d="M971.5,379.5c9,28,2,50-20,67L725.4,618.6l87,280.1c11,39-18,75-54,75c-12,0-23-4-33-12l-226.1-172L273.2,961.8
	c-25,17-59,12-78-12c-12-16-15-33-8-51l86-278.1L46.1,446.5c-21-17-28-39-19-67c8-24,29-40,52-40h280.1l87-278.1c7-23,28-39,52-39
	c25,0,47,17,54,41l87,276.1h280.1C942.5,339.5,963.5,355.5,971.5,379.5L971.5,379.5z"/>
</svg>
