<?xml version="1.0" encoding="utf-8"?>
<!-- Generator: Adobe Illustrator 22.1.0, SVG Export Plug-In . SVG Version: 6.00 Build 0)  -->
<svg version="1.1" id="图层_1" xmlns="http://www.w3.org/2000/svg" xmlns:xlink="http://www.w3.org/1999/xlink" x="0px" y="0px"
	 viewBox="0 0 1000 1000" style="enable-background:new 0 0 1000 1000;" xml:space="preserve">
<style type="text/css">
	.st0{fill:#22849F;}
	.st1{fill:#D8D8D8;}
</style>
<path class="st0" d="M510.2,23.3l1,767.3L285.1,962.8c-25,17-59,12-78-12c-12-16-15-33-8-51l86-278.1L58,447.5c-21-17-28-39-19-67
	c8-24,29-40,52-40h280.1l87-278.1C465.2,39.3,486.2,23.3,510.2,23.3z"/>
<path class="st1" d="M563.3,62.4l87,278.1h280.1c23,0,44,16,52,40c9,28,2,50-19,67L736.3,621.7l86,278.1c7,18,4,35-8,51
	c-19,24-53,29-78,12L510.2,790.6l1-767.3C535.2,23.3,556.2,39.3,563.3,62.4z"/>
</svg>
